<?xml version="1.0" encoding="UTF-8" standalone="no"?>
<!-- Created with Inkscape (http://www.inkscape.org/) -->

<svg
   xmlns:dc="http://purl.org/dc/elements/1.1/"
   xmlns:cc="http://creativecommons.org/ns#"
   xmlns:rdf="http://www.w3.org/1999/02/22-rdf-syntax-ns#"
   xmlns:svg="http://www.w3.org/2000/svg"
   xmlns="http://www.w3.org/2000/svg"
   xmlns:xlink="http://www.w3.org/1999/xlink"
   xmlns:sodipodi="http://sodipodi.sourceforge.net/DTD/sodipodi-0.dtd"
   xmlns:inkscape="http://www.inkscape.org/namespaces/inkscape"
   width="1597.1713"
   height="400"
   viewBox="0 0 1597.1713 400"
   id="svg2"
   version="1.1"
   inkscape:version="0.91 r13725"
   sodipodi:docname="flutils-logo.svg">
  <defs
     id="defs4">
    <linearGradient
       inkscape:collect="always"
       id="linearGradient4827">
      <stop
         style="stop-color:#ffffff;stop-opacity:1;"
         offset="0"
         id="stop4150" />
      <stop
         style="stop-color:#ffffff;stop-opacity:0;"
         offset="1"
         id="stop4152" />
    </linearGradient>
    <filter
       inkscape:collect="always"
       style="color-interpolation-filters:sRGB"
       id="filter5043"
       x="-0.0078699449"
       width="1.0157399"
       y="-0.025251901"
       height="1.0505038">
      <feGaussianBlur
         inkscape:collect="always"
         stdDeviation="4.1107322"
         id="feGaussianBlur5045" />
    </filter>
    <radialGradient
       inkscape:collect="always"
       xlink:href="#linearGradient4827"
       id="radialGradient4798"
       gradientUnits="userSpaceOnUse"
       gradientTransform="matrix(4.1797145,0.04805689,-0.04620616,4.0187486,-131.70724,-3019.4543)"
       cx="90"
       cy="962.36212"
       fx="90"
       fy="962.36212"
       r="43.284271" />
  </defs>
  <sodipodi:namedview
     id="base"
     pagecolor="#2980b9"
     bordercolor="#666666"
     borderopacity="1.0"
     inkscape:pageopacity="0"
     inkscape:pageshadow="2"
     inkscape:zoom="0.70710678"
     inkscape:cx="-245.5276"
     inkscape:cy="372.10142"
     inkscape:document-units="px"
     inkscape:current-layer="layer1"
     showgrid="false"
     units="px"
     inkscape:window-width="3840"
     inkscape:window-height="2111"
     inkscape:window-x="0"
     inkscape:window-y="1"
     inkscape:window-maximized="1"
     fit-margin-top="0"
     fit-margin-left="0"
     fit-margin-right="0"
     fit-margin-bottom="0" />
  <metadata
     id="metadata7">
    <rdf:RDF>
      <cc:Work
         rdf:about="">
        <dc:format>image/svg+xml</dc:format>
        <dc:type
           rdf:resource="http://purl.org/dc/dcmitype/StillImage" />
        <dc:title></dc:title>
      </cc:Work>
    </rdf:RDF>
  </metadata>
  <g
     inkscape:label="Layer 1"
     inkscape:groupmode="layer"
     id="layer1"
     transform="translate(0,-652.36215)">
    <path
       style="color:#000000;font-style:normal;font-variant:normal;font-weight:normal;font-stretch:normal;font-size:106.69047546px;line-height:125%;font-family:Sans;text-indent:0;text-align:start;text-decoration:none;text-decoration-line:none;text-decoration-style:solid;text-decoration-color:#000000;letter-spacing:0px;word-spacing:0px;text-transform:none;direction:ltr;block-progression:tb;writing-mode:lr-tb;baseline-shift:baseline;text-anchor:start;white-space:normal;clip-rule:nonzero;display:inline;overflow:visible;visibility:visible;opacity:1;isolation:auto;mix-blend-mode:normal;color-interpolation:sRGB;color-interpolation-filters:linearRGB;solid-color:#000000;solid-opacity:1;fill:#1e5d88;fill-opacity:1;fill-rule:nonzero;stroke:none;stroke-width:30;stroke-linecap:butt;stroke-linejoin:miter;stroke-miterlimit:4;stroke-dasharray:none;stroke-dashoffset:0;stroke-opacity:1;filter:url(#filter5043);color-rendering:auto;image-rendering:auto;shape-rendering:auto;text-rendering:auto;enable-background:accumulate"
       d="m 832.33398,-679.98435 -54.66406,14.77539 -56.97461,14.5332 -0.16015,11.48633 c -0.0653,4.6829 -0.1191,6.86466 -0.1836,11.36133 -1.44158,-6.81745 -3.00953,-14.72881 -4.94726,-26.48438 l -1.54688,-9.38867 -9.15234,-2.60156 c -17.03253,-4.84258 -33.24178,-7.36914 -48.64258,-7.36914 -22.69904,0 -44.25711,7.10188 -63.10547,20.60937 -0.005,0.003 -0.009,0.007 -0.0137,0.01 -0.003,0.002 -0.005,0.004 -0.008,0.006 -18.71713,13.37554 -34.8196,32.84924 -48.87283,57.81438 l -2.24609,3.99023 3.20507,40.05469 c -10.12035,13.76656 -21.36966,31.38854 -34.16796,53.57227 l -14.54883,25.21875 44.48633,-4.28516 3.39648,187.39063 20.67969,-9.18946 c 0.76542,-0.34018 14.01415,-4.52245 33.67578,-9.47656 l 0.0508,-0.0137 55.39453,-14.37305 -0.77148,-12.34765 c -1.69342,-27.09465 -3.02165,-65.77618 -3.95703,-115.78516 l -0.002,-0.0703 -0.49609,-35.49024 c 8.60572,-0.42889 16.50098,-0.99172 22.94726,-1.88086 l -0.39257,0.0488 c 5.47475,-0.6083 9.6077,-0.97432 12.02539,-1.10156 l -0.0391,0.002 c 3.43703,-0.17185 6.55217,-0.43169 9.4375,-0.81641 l 9.74805,-1.29882 16.5918,-58.21289 c -0.6595,35.96055 -1.27955,63.71855 -1.8125,75.62109 l -0.002,0.0117 0,0.0117 c -0.94178,21.81805 -1.41992,37.50607 -1.41992,47.53125 0,26.13381 5.88354,48.72871 18.92383,66.17969 l 0.0254,0.0312 0.0234,0.0332 c 13.10238,17.34138 33.03751,28.46067 57.17578,33.5332 l 9.35156,1.96485 5.73242,-7.64454 c 12.02353,-16.03136 27.05237,-32.52071 45.11719,-49.37109 l 1.65625,-1.54492 c 0.85421,2.07131 1.77288,4.09356 2.80078,6.03515 l 0.0215,0.041 0.0215,0.0391 c 6.33857,11.79678 13.33621,21.05322 23.47461,26.59375 9.8058,5.74148 23.0308,9.39074 45.08008,15.06055 l 6.54102,1.68164 5.5957,-3.78125 c 13.34541,-9.0212 24.6654,-16.36794 34.23047,-22.33008 -0.51467,3.53163 -0.86939,6.8967 -1.57617,10.62695 l -4.125,21.76758 54.11717,-10.58789 0.022,-0.006 c 25.9054,-5.14988 43.362,-8.51174 51.9453,-10.01757 l 12.7832,-2.24219 -0.3828,-12.97461 c -1.4047,-47.60457 -2.1035,-81.48692 -2.1035,-101.29883 0,-5.34343 0.1285,-9.69377 0.1621,-14.7793 l 13.0781,-2.33593 c 1.6171,-0.28877 3.0316,-0.42755 4.5762,-0.66211 -0.6188,6.42909 -0.7955,9.79901 -1.9531,19.80468 -2.2072,18.4516 -3.3829,30.65887 -3.3829,38.76368 0,22.67569 8.0591,43.46534 23.3848,59.30664 15.3258,15.8413 37.0411,26.8901 64.293,34.39062 l 10.498,2.89063 57.7481,-87.45704 -19.4922,-5.71093 c -13.7187,-4.01861 -21.6052,-9.28678 -25,-13.61524 l -0.012,-0.0156 -0.012,-0.0137 c -3.8894,-4.93291 -6.3906,-12.05837 -6.3906,-23.29883 0,-5.54355 0.6076,-19.8095 1.1563,-33.18945 7.7686,-0.47397 14.7476,-1.05451 20.9101,-1.72657 l -3.1035,14.36524 15.0313,2.92383 c 6.5458,1.2728 13.1437,1.91601 19.7421,1.91601 2.1464,0 4.2775,-0.11057 6.3946,-0.29101 l 0.6406,40.26562 c 0,38.56685 -1.1236,67.54423 -3.1894,86.13672 l -2.086,18.77344 18.7578,-2.22266 c 24.1292,-2.8574 52.3508,-7.11637 84.7442,-12.77734 l 13.2636,-2.31836 -0.8789,-13.43555 c -2.0289,-31.05766 -3.1981,-51.18114 -3.4922,-59.5625 l 0,-0.0352 -1.6484,-41.46484 -0.012,-0.16797 c -0.1247,-1.99571 -0.205,-5.03906 -0.205,-8.91016 0,-9.15073 -0.076,-16.36572 -0.2403,-21.78906 l -0.014,-0.39453 -0.031,-0.39648 c -0.1098,-1.31712 -0.1735,-2.99448 -0.1777,-4.92383 l 0.6972,-17.44141 0,-65.25 -21.414,10.13086 c -35.4834,16.78637 -67.0241,27.85613 -94.3711,33.49219 0.8388,-4.94217 1.4866,-8.5718 2.539,-14.88672 l 3.3457,-20.08008 -20.1699,2.75 c -1.4787,0.20165 -8.4394,0.56641 -18.3672,0.56641 -7.0093,0 -8.8348,-0.19686 -13.539,-0.30469 0.2501,-3.94502 0.4062,-7.40993 0.4062,-10.24805 0,-3.0909 -0.086,-6.05617 -0.2636,-8.90625 l -1.0137,-16.24413 -16.1074,2.33593 c -10.402,1.50753 -26.7226,3.45466 -48.6661,5.78907 -12.8509,1.23787 -18.9671,1.76795 -23.1484,2.46484 l -12.6914,2.11523 0.3887,31.61524 -0.2325,14.70312 0,0.75781 -19.9628,34.27735 c 0.3467,-15.78663 0.8556,-30.28676 1.5957,-42.94922 l 1.0879,-18.60938 -18.4102,2.91993 c -25.0486,3.97112 -46.9048,5.91015 -65.4004,5.91015 -4.09678,0 -8.85749,-0.44222 -14.2285,-1.40625 l -16.55274,-2.9707 7.01563,-17.80859 -29.49219,8.73828 c -37.48822,11.10762 -65.27589,17.07806 -81.38086,18.16992 l -12.38281,0.83984 -1.49414,12.32031 c -4.45314,36.7384 -6.67188,74.77254 -6.67188,114.09571 0,7.68164 0.52547,14.69899 1.34766,21.40625 -10.83564,-6.3409 -20.57781,-12.59075 -29.58594,-18.76758 l 3.07617,-59.49414 11.02539,-193.72656 z m 666.90822,0 -54.6641,14.77539 -56.9746,14.5332 -0.1601,11.48633 c -1.2498,89.67154 -2.3594,145.23002 -3.2676,165.51367 l 0,0.0117 0,0.0117 c -0.9418,21.81805 -1.4199,37.50607 -1.4199,47.53125 0,26.13381 5.8835,48.72871 18.9238,66.17969 l 0.025,0.0312 0.024,0.0332 c 13.1023,17.34138 33.0375,28.46067 57.1757,33.5332 l 9.3516,1.96485 5.7324,-7.64454 c 11.0058,-14.67437 24.6573,-29.7478 40.7227,-45.11523 -0.271,0.86235 -0.6801,1.89773 -0.9317,2.73633 l -3.3203,11.06836 9.8555,6.03515 c 25.8159,15.80563 57.4391,23.30469 93.8672,23.30469 21.2528,0 41.711,-3.024 61.1758,-9.11328 l 0,-0.002 c 19.2793,-5.98356 33.7512,-12.54762 44.0156,-22.58789 l 0,-0.002 c 8.606,-8.41531 15.6932,-19.01645 21.5937,-31.51172 l 0.074,-0.15429 0.07,-0.15821 c 5.7862,-13.0189 8.793,-26.69803 8.793,-40.55273 0,-12.93994 -2.4788,-24.7226 -9.6016,-34.13477 l -0.019,-0.0254 -0.018,-0.0234 c -6.5925,-8.63853 -16.2752,-14.64668 -26.9433,-17.20704 l -0.064,-0.0156 -0.064,-0.0137 c -0.1198,-0.0276 -0.2739,-0.0412 -0.3946,-0.0684 l 0.064,-3.56836 c 0.1038,-5.81331 2.5142,-18.72806 7.8027,-36.25586 l 0.012,-0.0391 0.012,-0.041 c 1.6426,-5.5538 2.8942,-9.79924 3.7597,-12.75 0.8656,-2.95076 1.0227,-3.28001 1.5645,-5.44726 l 4.6601,-18.63868 -19.2109,0 c -26.0867,0 -52.8949,-0.84967 -80.4219,-2.55078 -12.8767,-0.93075 -22.7092,-1.63351 -29.4179,-2.10156 -3.3723,-0.23527 -5.9652,-0.41128 -7.8047,-0.53125 -1.8396,-0.11997 -1.289,-0.20703 -4.0235,-0.20703 l -3.7812,0 -3.3301,1.79101 c -27.272,14.68491 -46.5523,28.08476 -58.4902,42.94922 0,0.003 -0.01,0.007 -0.01,0.01 0,0.003 -0.01,0.007 -0.01,0.01 -11.9469,14.84742 -17.8359,33.6373 -17.8359,54.16407 0,22.56732 8.3166,42.55243 23.9727,55.0957 l -3.084,7.25195 c -1.2766,3.00163 -2.2208,5.55032 -3.3633,8.36719 l 0,-0.58203 -7.4668,-4.33594 c -11.5252,-6.69203 -21.7685,-13.2783 -31.2637,-19.78906 l 3.0762,-59.49414 11.0254,-193.72656 z m -193.1992,2.79492 c -15.4043,0 -30.1019,6.13697 -40.8907,17.09961 -10.899,10.92273 -17.0097,25.62615 -17.0097,41.03516 0,15.40431 6.1369,30.10182 17.0996,40.89062 10.8899,10.86645 25.5006,17.00976 40.8008,17.00976 15.3213,0 29.9565,-6.12772 40.9843,-16.95507 l 0.049,-0.0488 0.049,-0.0488 c 10.8946,-10.89462 17.0527,-25.52629 17.0527,-40.84765 0,-15.8778 -6.046,-30.95528 -17.2539,-41.74805 l -0.051,-0.0488 -0.049,-0.0469 c -11.0689,-10.46528 -25.5931,-16.29108 -40.7811,-16.29108 z m 0,30 c 8.2274,0 14.0094,2.29469 20.1093,8.04102 5.6381,5.44669 8.0254,10.99047 8.0254,20.09375 0,8.09928 -2.2768,13.6205 -8.2246,19.58593 -6.1416,6.00996 -11.8137,8.31445 -19.9101,8.31445 -8.1214,0 -13.6506,-2.28147 -19.6348,-8.26562 l -0.049,-0.0488 -0.051,-0.0488 c -5.8813,-5.77243 -8.166,-11.21209 -8.166,-19.53711 0,-8.32502 2.3142,-13.91772 8.2656,-19.86914 l 0.049,-0.0488 0.051,-0.0508 c 5.7724,-5.88134 11.2101,-8.16602 19.5352,-8.16602 z m -649.9805,3.51758 c 9.63691,0 20.18664,1.33227 31.56445,3.98047 1.28699,7.30842 2.56383,14.46712 3.67774,19.62695 l -6.13672,21.15039 c -16.53142,-11.37199 -31.96198,-19.32806 -46.80274,-23.54883 l -19.10351,-5.43359 0,19.86133 c 0,22.33141 -0.70659,37.28382 -1.00391,39.24609 l 0.0723,-0.43555 c -0.75752,4.16633 -1.46357,9.64105 -2.26367,17.00195 l -1.80664,16.6211 50.71093,0 c 6.34413,0 12.76189,-0.31223 19.14063,-0.45899 l -4.94922,17.36524 c -3.15496,0.22084 -6.47281,0.48917 -11.1582,1.00976 l -0.19727,0.0215 -0.19726,0.0273 c -8.12246,1.12034 -19.71344,1.90183 -34.36329,2.20703 l -14.89648,0.3086 0.91406,65.09961 0,0.0351 c 0.82384,44.07517 2.0026,77.9086 3.44141,104.76563 l -31.5957,8.19726 0.10351,-0.0254 c -7.46084,1.8799 -12.58226,3.22574 -17.80078,4.61133 l -3.21484,-177.21484 -18.01368,1.73437 c 7.40781,-11.79696 14.31363,-22.2182 20.13282,-29.80078 l 3.51171,-4.57617 -0.45898,-5.75195 -2.89258,-36.14258 c 11.88613,-20.19567 24.66035,-34.99121 37.91797,-44.46094 l 0.01,-0.008 0.0117,-0.008 c 14.27887,-10.23768 28.97046,-15.00586 45.64648,-15.00586 z m 143.95703,3.49804 -8.66601,152.28907 -3.94336,76.21484 6.66992,4.77734 c 7.55426,5.41049 15.87536,10.82299 24.55664,16.24024 -10.83723,10.86586 -20.48526,21.69876 -29.14649,32.52344 -14.00836,-4.28539 -23.91487,-10.82403 -30.70898,-19.80079 -8.20072,-10.99114 -12.93555,-26.5217 -12.93555,-48.1914 0,-9.04158 0.45895,-24.60914 1.39258,-46.23828 l -0.002,0.0254 c 0.91609,-20.4594 1.94185,-73.4067 3.10937,-154.94336 l 34.94727,-8.91602 14.72656,-3.98047 z m 666.90817,0 -8.666,152.28907 -3.9433,76.21484 6.6699,4.77734 c 7.5542,5.41049 15.8753,10.82299 24.5566,16.24024 -10.8372,10.86586 -20.4852,21.69876 -29.1465,32.52344 -14.0083,-4.28539 -23.9148,-10.82403 -30.7089,-19.80079 -8.2008,-10.99114 -12.9356,-26.5217 -12.9356,-48.1914 0,-9.04158 0.459,-24.60914 1.3926,-46.23828 l 0,0.0254 c 0.9161,-20.4594 1.9419,-73.4067 3.1094,-154.94336 l 34.9473,-8.91602 14.7265,-3.98047 z m -746.83981,28.56836 c -0.24722,16.50324 -0.48234,30.6751 -0.7168,44.32422 l -12.31445,0.58594 13.03125,-44.91016 z m -70.98828,26.05274 c 9.08274,4.73863 19.18692,11.23355 30.2168,19.60742 -4.77423,0.0855 -9.5941,0.34375 -14.34571,0.34375 l -16.91601,0 c 0.62819,-4.74683 0.90824,-11.60366 1.04492,-19.95117 z m 524.78129,16.95507 c -0.2428,4.32885 -0.3089,7.45684 -0.9727,14.47461 l -1.4121,14.94532 14.9453,1.40039 c 6.3746,0.59761 16.1689,0.76953 31.1738,0.76953 0.9617,0 1.5226,-0.0251 2.4219,-0.0273 -1.1121,6.26246 -2.0271,11.53003 -2.7656,15.39063 -8.6137,0.89557 -18.6256,1.69399 -31.4707,2.23828 l -13.7012,0.58203 -0.6465,13.69727 c -1.098,23.21616 -1.6582,38.97497 -1.6582,48.0625 0,15.93865 3.8998,30.5254 12.8086,41.84179 0,0.003 0.01,0.005 0.01,0.008 5.5266,7.04326 12.9717,12.33658 21.6797,16.64648 l -24.082,36.4707 c -18.3025,-6.21229 -31.8369,-14.05565 -40.4863,-22.99609 -10.2269,-10.57085 -14.9454,-22.36431 -14.9454,-38.44726 0,-4.70037 1.0124,-17.17772 3.1758,-35.25782 l 0,-0.0293 0,-0.0293 c 2.2014,-19.0263 3.473,-31.68129 3.8321,-39.22266 l 0.7656,-16.05859 -12.0137,0.26172 12.2031,-20.95313 0,-8.61914 0.2364,-14.86133 0,-0.21093 -0.066,-5.33008 c 3.5252,-0.37519 3.3468,-0.38784 8.543,-0.88867 l 0.072,-0.006 0.074,-0.008 c 14.3431,-1.52587 22.5816,-2.63502 32.2754,-3.84376 z m -206.24418,11.06446 2.41992,12.38672 c 3.51408,17.9921 5.58398,49.3797 5.58398,92.53515 0,10.40534 -0.087,16.02207 -0.18164,20.74414 -2.85146,3.28699 -6.62554,7.09088 -11.27539,11.3418 -2.84883,-6.13078 -5.3547,-11.89091 -7.38281,-17.11719 l -0.0664,-0.17187 -0.0723,-0.16992 c -3.1561,-7.57464 -4.70703,-15.34867 -4.70703,-23.76953 0,-8.65548 1.04814,-19.05097 3.26562,-31.0254 2.36838,-12.32281 4.27876,-23.44964 5.72266,-33.39648 l 0,-0.006 0.002,-0.008 c 2.28887,-15.86951 4.89058,-26.77152 5.67383,-28.75977 l 1.01758,-2.58398 z m 625.73628,16.08398 c 1.6655,0.111 3.4745,0.23214 6.1661,0.41992 6.6961,0.46717 16.5348,1.17019 29.5,2.10743 l 0.078,0.006 0.078,0.004 c 21.2159,1.3111 41.9119,1.96512 62.3457,2.28711 -2.6445,8.85199 -4.7605,16.69117 -6.2168,23.66016 -21.8339,-5.49632 -52.1609,-9.47303 -92.8359,-12.96289 l -21.502,-1.84571 c 6.4033,-4.35361 13.782,-8.91301 22.3867,-13.67578 z m -660.69527,2.22852 c -0.46802,2.98717 -0.92239,5.2579 -1.42578,8.74804 -1.36466,9.39938 -3.20059,20.12122 -5.50976,32.12891 l -0.01,0.0508 -0.01,0.0508 c -2.47106,13.34373 -3.76758,25.45186 -3.76758,36.48829 0,12.16665 2.34638,24.04532 6.97265,35.1914 4.31157,11.08073 9.96217,23.3207 16.97852,36.875 l 4.25586,8.22266 c -7.11641,4.52208 -14.95068,9.63496 -23.7168,15.50781 -17.7667,-4.86771 -29.74336,-9.31256 -31.28711,-10.23047 l -0.27343,-0.16211 -0.28125,-0.15039 c -1.9244,-1.03621 -6.59534,-5.45491 -11.45118,-14.47461 -3.82635,-7.24684 -6.68164,-20.18776 -6.68164,-38.42773 0,-34.04417 1.81196,-66.93897 5.22852,-98.81446 14.03142,-1.94716 30.80178,-5.56757 50.97851,-11.0039 z m 121.03317,4.13867 c -0.8565,20.77793 -1.414,43.70284 -1.414,70.75 0,18.37466 0.656,49.22859 1.7871,89.42187 -10.0122,1.86854 -20.1848,3.77241 -39.8789,7.6875 l -11.4883,2.24805 c 0.8183,-7.60529 1.2812,-14.95576 1.2812,-21.99609 l 0,-24.13086 -12.79488,6.31445 c 4.27059,-4.27711 8.09579,-8.45025 11.17578,-12.53125 l 2.8535,-3.7832 0.1641,-4.73633 c 0.1733,-5.02484 0.2441,-13.74155 0.2441,-26.77344 0,-32.52364 -1.0221,-58.50717 -3.2773,-78.78711 15.5383,-0.0354 32.6347,-1.28022 51.3476,-3.68359 z m 282.3418,2.82813 0,17.92382 -0.7031,17.58203 0,0.29883 c 0,2.67761 0.088,5.1853 0.2871,7.57617 l -0.045,-0.79101 c 0.1482,4.89147 0.2266,11.90059 0.2266,20.8789 0,4.25572 0.076,7.77585 0.2636,10.78126 l -0.018,-0.33985 1.6386,41.18945 c 0.2566,7.31331 1.4666,26.62018 2.7442,46.86719 -18.8894,3.18063 -36.0212,5.78385 -51.6602,7.89844 1.1987,-18.6626 1.7813,-41.9831 1.7813,-70.5293 l 0,-0.12109 -1.2891,-80.83203 -20.2773,8.20703 c -4.3201,1.74857 -8.955,2.6136 -14.0899,2.76562 l 0.6309,-2.92968 c 24.6849,-5.00286 51.557,-13.99188 80.5097,-26.42578 z m 233.8809,5.18554 7.0605,20.88867 c 5.0968,15.07778 16.8923,26.97142 32.0586,33.83008 15.1664,6.85866 33.6413,9.65625 55.7618,9.65625 21.3871,0 36.2754,1.20937 41.5703,2.41797 4.9014,1.18695 7.5575,2.98207 10.0117,6.1875 1.6267,2.16072 3.5117,7.09225 3.5117,16.01172 0,9.54377 -1.982,18.7977 -6.1582,28.23828 -4.7027,9.91254 -9.926,17.38835 -15.3496,22.69141 l 0,0.002 0,0 c -4.1129,4.02354 -14.9582,10.11655 -31.9336,15.38477 l -0.017,0.006 -0.018,0.006 c -16.4704,5.15595 -33.8192,7.75391 -52.25,7.75391 -27.0074,0 -49.3499,-4.64004 -67.7285,-13.33008 0.9055,-2.51002 1.9286,-5.18501 3.0097,-7.96289 22.7377,7.78958 47.5742,11.67578 74.3301,11.67578 19.0421,0 37.2436,-5.51355 53.2637,-16.07226 l 18.3711,-12.10938 -17.9824,-12.67578 c -11.8049,-8.32149 -25.5837,-12.82031 -39.8223,-12.82031 -2.6776,0 -5.7009,0.0876 -9.1523,0.25195 l 0.1132,-0.006 c -7.7863,0.31145 -13.0963,0.45703 -12.7617,0.45703 -29.2906,0 -50.3547,-4.67694 -62.873,-11.84765 l -0.047,-0.0274 -0.049,-0.0254 c -11.4728,-6.46039 -16.5059,-15.35652 -16.5059,-34.28515 0,-15.09718 3.797,-26.14979 11.2188,-35.36719 l 0.01,-0.01 0.01,-0.01 c 4.1461,-5.16567 11.8916,-11.708 22.3555,-18.91016 z m -31.8984,114.66797 c 0.023,0.013 0.047,0.0241 0.07,0.0371 0.01,0.005 0.017,0.0107 0.025,0.0156 l -0.096,-0.0527 z"
       id="text4868"
       inkscape:connector-curvature="0"
       transform="matrix(0.97419923,0,0,0.97331619,-117.19496,1324.0677)" />
    <circle
       style="opacity:1;fill:#1e5d88;fill-opacity:1;stroke:none;stroke-width:4;stroke-linecap:square;stroke-linejoin:miter;stroke-miterlimit:10;stroke-dasharray:none;stroke-dashoffset:0;stroke-opacity:1"
       id="path4177"
       cx="200"
       cy="852.36212"
       r="200" />
    <path
       inkscape:connector-curvature="0"
       id="path4732"
       style="font-style:normal;font-weight:normal;font-size:medium;line-height:125%;font-family:Sans;letter-spacing:0px;word-spacing:0px;fill:url(#radialGradient4798);fill-opacity:1;fill-rule:nonzero;stroke:none;stroke-width:1px;stroke-linecap:butt;stroke-linejoin:miter;stroke-opacity:1"
       d="m 200,1024.3108 q -75.38661,0 -128.15723,-50.15166 -52.77062,-50.1517 -52.77062,-121.79699 0,-71.6453 52.77062,-121.79701 52.77062,-50.1517 128.15723,-50.1517 75.3866,0 128.15723,50.1517 52.77062,50.15171 52.77062,121.79701 0,71.64529 -52.77062,121.79699 Q 273.50194,1024.3108 200,1024.3108 Z m -35.80864,-220.30923 -116.84924,0 94.23327,66.27189 L 105.76675,975.95025 200,911.46952 l 96.11792,64.48073 -35.80864,-105.67679 94.23326,-66.27189 -116.84924,0 L 200,698.32476 164.19136,804.00157 Z" />
    <g
       style="font-style:normal;font-weight:normal;font-size:106.69047546px;line-height:125%;font-family:Sans;letter-spacing:0px;word-spacing:0px;fill:#ffffff;fill-opacity:1;stroke:none;stroke-width:1px;stroke-linecap:butt;stroke-linejoin:miter;stroke-opacity:1"
       id="text4833"
       transform="matrix(0.97419923,0,0,0.97331619,-117.19496,1326.1893)">
      <path
         inkscape:connector-curvature="0"
         d="m 560.1433,-548.29956 -3.28199,-41.02478 q 19.92633,-35.39853 44.5412,-52.98058 24.84929,-17.81647 54.38714,-17.81647 20.6296,0 44.54119,6.79839 3.51641,21.33289 6.09511,32.5854 l -13.12793,45.24447 q -33.75753,-26.72471 -59.31011,-33.99196 0,33.75754 -1.17214,41.49364 -0.93771,5.1574 -2.10985,15.94106 l 33.99197,0 q 19.45747,0 39.14936,-0.93771 l -13.36236,46.88546 q -3.51641,0.46886 -8.20495,0.70329 -4.45412,0.23442 -12.89351,1.17213 -13.59678,1.87542 -36.10181,2.34428 l 0.70329,50.16744 q 1.40656,75.25118 3.98526,116.51039 l -43.36906,11.25251 q -29.77227,7.50168 -36.10181,10.3148 l -3.28198,-180.9779 -31.64769,3.04756 q 21.09846,-36.57067 36.57067,-56.73142 z"
         style="font-style:normal;font-variant:normal;font-weight:normal;font-stretch:normal;font-size:480.10717773px;font-family:'Matura MT Script Capitals';-inkscape-font-specification:'Matura MT Script Capitals'"
         id="path5048" />
      <path
         inkscape:connector-curvature="0"
         d="m 735.26051,-640.4295 45.94776,-11.72137 34.69524,-9.37709 -9.84595,173.00737 -3.51641,67.98393 q 17.34763,12.42465 39.14937,25.08372 l 0,1.641 q -27.89685,26.02143 -46.88547,51.33958 -32.35097,-6.79839 -48.29203,-27.89685 -15.94106,-21.33289 -15.94106,-57.20027 0,-14.30007 1.40657,-46.88547 1.40656,-31.41326 3.28198,-165.97455 z"
         style="letter-spacing:-10.5px"
         id="path5050" />
      <path
         inkscape:connector-curvature="0"
         d="m 867.76117,-543.14216 q 27.66243,-1.87541 84.62827,-18.75418 -3.04756,7.7361 -6.56397,32.11654 -2.10984,14.5345 -5.62625,32.81983 -3.51641,18.98861 -3.51641,33.75753 0,15.47221 5.86068,29.53785 6.09511,15.70663 16.40991,35.63295 21.80175,-17.34762 31.17884,-29.77227 0.23443,-6.79839 0.23443,-26.25586 0,-65.40522 -5.86069,-95.41192 9.14267,1.64099 16.87882,1.64099 29.3034,0 67.7495,-6.09511 -2.1099,36.10181 -2.1099,88.14467 0,30.24113 2.1099,101.74147 -13.3624,2.34427 -52.2773,10.08037 l -32.35102,6.32954 q 4.2197,-22.2706 4.2197,-40.79036 -18.05091,8.90824 -60.0134,37.27395 -32.81983,-8.43938 -41.49364,-13.59679 -9.14267,-4.92297 -17.58205,-20.6296 -8.43938,-15.94106 -8.43938,-45.4789 0,-58.13798 6.56396,-112.2907 z"
         style="letter-spacing:-10.5px"
         id="path5052" />
      <path
         inkscape:connector-curvature="0"
         d="m 1117.7099,-559.7865 -0.2344,-18.98861 q 2.8131,-0.46885 22.2706,-2.34427 33.0543,-3.51641 49.2298,-5.86069 0.2344,3.75084 0.2344,7.97053 0,7.50168 -1.641,24.8493 7.5017,0.70328 29.7723,0.70328 15.2377,0 20.3951,-0.70328 -6.3295,37.97723 -8.2049,44.77562 -15.7066,2.34427 -43.3691,3.51641 -1.641,34.69525 -1.641,47.35432 0,20.39518 9.6116,32.5854 9.377,11.95579 32.5854,18.75419 l -40.556,61.41996 q -76.6577,-21.09846 -76.6577,-79.23644 0,-9.61152 3.282,-37.03952 3.282,-28.36571 3.7508,-38.21165 -10.7836,0.23442 -23.9116,2.5787 l 24.8493,-42.66578 0,-4.68854 0.2344,-14.76893 z"
         style="letter-spacing:-10.5px"
         id="path5054" />
      <path
         inkscape:connector-curvature="0"
         d="m 1236.3794,-490.86486 6.3295,-29.30342 q 47.1199,-7.7361 108.071,-36.57066 l 0,41.25921 -0.7032,17.58205 q 0,3.51641 0.2344,6.32954 0.2344,7.7361 0.2344,21.33288 0,6.09512 0.2344,9.84595 l 1.641,41.25921 q 0.4689,13.36236 3.5164,60.0134 -48.292,8.43938 -83.9249,12.65908 3.2819,-29.53785 3.2819,-87.91025 l -0.9377,-58.84126 q -9.8459,3.98526 -21.0984,3.98526 -8.4394,0 -16.8788,-1.64099 z m 69.3905,-172.77294 q 17.582,0 30.4755,12.19022 12.6591,12.19022 12.6591,30.9444 0,17.58205 -12.6591,30.24113 -12.8935,12.65908 -30.4755,12.65908 -17.5821,0 -30.2411,-12.65908 -12.6591,-12.42465 -12.6591,-30.24113 0,-17.81647 12.6591,-30.47555 12.4246,-12.65907 30.2411,-12.65907 z"
         style="letter-spacing:-10.5px"
         id="path5056" />
      <path
         inkscape:connector-curvature="0"
         d="m 1402.1688,-640.4295 45.9477,-11.72137 34.6953,-9.37709 -9.846,173.00737 -3.5164,67.98393 q 17.3476,12.42465 39.1494,25.08372 l 0,1.641 q -27.8969,26.02143 -46.8855,51.33958 -32.351,-6.79839 -48.292,-27.89685 -15.9411,-21.33289 -15.9411,-57.20027 0,-14.30007 1.4066,-46.88547 1.4066,-31.41326 3.282,-165.97455 z"
         style="letter-spacing:-10.5px"
         id="path5058" />
      <path
         inkscape:connector-curvature="0"
         d="m 1589.5254,-558.1455 q 1.4066,0 40.3215,2.81312 41.7281,2.5787 81.3463,2.5787 -0.2344,0.93771 -5.1574,17.58205 -8.2049,27.19357 -8.4394,40.32151 -27.428,-10.78366 -106.6644,-17.58205 11.2525,33.28868 73.6102,33.28868 32.8198,0 45.01,2.81312 11.7214,2.81313 18.5198,11.72137 6.564,8.67381 6.564,25.08373 0,17.58205 -7.5017,34.46081 -7.9706,16.87877 -18.5198,27.19357 -10.7836,10.54923 -37.9772,18.98862 -26.9592,8.43938 -56.7314,8.43938 -51.574,0 -86.0349,-21.09846 4.2197,-14.06564 12.8935,-34.46082 36.5707,15.94106 82.7529,15.94106 24.3804,0 45.01,-13.59678 -14.3,-10.08038 -31.1788,-10.08038 -3.5164,0 -8.4394,0.23443 -11.7213,0.46885 -13.3623,0.46885 -46.1822,0 -70.3282,-13.83121 -24.146,-13.59678 -24.146,-47.35432 0,-26.72472 14.5344,-44.77562 14.3001,-17.81648 53.9183,-39.14936 z"
         style="letter-spacing:-10.5px"
         id="path5060" />
    </g>
  </g>
</svg>
